# xmcd
#
# Track frame offsets:
#	150
#	16418
#	34224
#	48960
#	64452
#	83004
#	97410
#	114379
#	132968
#	153262
#	169416
#	187782
#	203489
#
# Disc length: 2958 seconds
#
# Revision: 1
# Processed by: cddbd v1.5.2PL0 Copyright (c) Steve Scherf et al.
# Submitted via: audiograbber 1.83.01
#
DISCID=aa0b8c0d
DTITLE=Juanes - La Vida Es Un Ratico (13 Tracks)
DYEAR=2007
DGENRE=Pop
TTITLE0=No Creo En El Jamas
TTITLE1=Clase De Amor
TTITLE2=Me Enamora
TTITLE3=Hoy Me Voy
TTITLE4=La Vida Es Un Ratico
TTITLE5=Gotas De Agua Dulce
TTITLE6=La Mejor Parte De Mi
TTITLE7=Minas Piedras
TTITLE8=Tu Y Yo
TTITLE9=Bailala
TTITLE10=Difícil
TTITLE11=Tres
TTITLE12=Bandera de manos (feat. Campino)
EXTD=13 Tracks
EXTT0=
EXTT1=
EXTT2=
EXTT3=
EXTT4=
EXTT5=
EXTT6=
EXTT7=
EXTT8=
EXTT9=
EXTT10=
EXTT11=
EXTT12=
PLAYORDER=
